<svg width="79" height="336" viewBox="0 0 79 336" fill="none" xmlns="http://www.w3.org/2000/svg">
<path opacity="0.4" d="M0.348633 110.058C7.57406 114.224 12.7594 114.309 15.9045 110.398C19.1347 106.488 20.6648 99.8568 20.6648 90.5905V40.4334C20.6648 30.912 21.5149 23.0059 23.3 16.715C25.0851 10.169 27.9753 5.57839 31.9705 2.77299C36.1358 0.0526013 41.5761 -0.627496 48.2915 0.562674C55.1769 1.83786 63.6774 5.40837 73.708 11.2742L78.4683 14.0796V53.6102L72.4329 50.1247C65.2075 45.9591 60.3622 45.3641 57.812 48.3395C55.4319 51.3999 54.2418 57.5208 54.2418 66.8721V111.078C54.2418 122.555 53.1368 131.736 50.8416 138.367C48.6315 145.083 44.1262 149.334 37.4108 151.204C44.1262 160.811 48.6315 170.332 50.8416 179.598C53.0518 188.865 54.1568 199.236 54.1568 210.798V255.004C54.1568 264.27 55.3469 271.836 57.727 277.702C60.2772 283.568 65.1225 288.669 72.3479 292.749L78.3833 296.235V335.766L73.623 332.96C63.5924 327.179 55.0919 320.888 48.2065 314.342C41.4911 307.797 36.0507 300.826 31.8855 293.259C27.8903 285.863 25.0001 277.872 23.3 269.371C21.5149 261.04 20.6648 252.114 20.6648 242.592V192.435C20.6648 183.169 19.0497 174.668 15.9045 167.101C12.6744 159.535 7.48906 153.585 0.348633 149.504V110.058Z" fill="url(#paint0_linear_26_84)"/>
<defs>
<linearGradient id="paint0_linear_26_84" x1="150.984" y1="1.51234" x2="11.727" y2="242.845" gradientUnits="userSpaceOnUse">
<stop stop-color="#414B56"/>
<stop offset="0.903" stop-color="white" stop-opacity="0"/>
</linearGradient>
</defs>
</svg>
