<svg width="79" height="337" viewBox="0 0 79 337" fill="none" xmlns="http://www.w3.org/2000/svg">
<path opacity="0.4" d="M78.4298 226.344C71.2044 222.178 66.0191 222.093 62.8739 226.004C59.6437 229.915 58.1136 236.546 58.1136 245.812V295.969C58.1136 305.49 57.2635 313.396 55.4784 319.687C53.6933 326.233 50.7182 330.824 46.6379 333.544C42.6427 336.35 37.2024 337.03 30.317 335.755C23.6015 334.564 15.186 330.994 5.15543 325.213L0.395142 322.408V282.877L6.43051 286.363C13.6559 290.528 18.4162 291.038 20.7964 288.063C23.3465 285.087 24.6216 278.967 24.6216 269.7V225.494C24.6216 213.932 25.7267 204.836 28.0218 198.205C30.2319 191.489 34.7372 187.238 41.4526 185.368C34.7372 175.762 30.2319 166.24 28.0218 156.974C25.8117 147.708 24.7066 137.336 24.7066 125.775V81.5684C24.7066 72.3021 23.4315 64.651 20.8814 58.7851C18.5012 53.0043 13.6559 47.9886 6.51552 43.823L0.480152 40.3375V0.806885L5.24044 3.61228C15.271 9.39311 23.6865 15.599 30.4019 22.1449C37.2873 28.7759 42.7277 35.7469 46.7229 43.2279C50.8882 50.709 53.8633 58.7001 55.5635 67.2864C57.3486 75.6175 58.1986 84.5438 58.1986 94.0652V144.222C58.1986 153.489 59.8137 161.99 62.9589 169.556C66.1891 177.122 71.3744 183.073 78.5148 187.153L78.4298 226.344Z" fill="url(#paint0_linear_26_83)"/>
<defs>
<linearGradient id="paint0_linear_26_83" x1="127.36" y1="-11.1241" x2="-11.8801" y2="230.239" gradientUnits="userSpaceOnUse">
<stop stop-color="#424C57"/>
<stop offset="0.903" stop-color="white" stop-opacity="0"/>
</linearGradient>
</defs>
</svg>
